<svg xmlns="http://www.w3.org/2000/svg" viewBox="0 0 72 72" fill="none">
  <rect width="72" height="72" rx="16" fill="#0e1214"/>
  <path d="M16.9516 49.7215C16.8256 49.7215 16.6976 49.7335 16.5726 49.7545C15.3746 49.9625 14.5696 51.1035 14.7766 52.3015C16.2896 61.0545 23.9036 65.1765 24.7666 65.6175C27.0706 66.8965 29.5336 67.7285 32.0986 68.0945C32.9576 68.2175 33.8336 68.2775 34.7046 68.2775C41.8316 68.2775 48.4556 64.2395 51.5846 57.9905C56.2896 48.5935 53.0736 37.8865 43.7616 31.9545L39.0646 28.9355L30.7386 23.6455C23.3796 18.9555 20.7746 10.6165 24.4066 3.3635C26.7956 -1.4085 31.8656 -4.4925 37.3236 -4.4925C37.9946 -4.4925 38.6706 -4.4435 39.3326 -4.3505C41.3766 -4.0585 43.3416 -3.3925 45.1746 -2.3685L45.2876 -2.3095C45.3426 -2.2835 51.7446 0.9465 52.9356 7.8325C53.1186 8.8925 54.0316 9.6605 55.1046 9.6605C55.2296 9.6605 55.3576 9.6495 55.4806 9.6285C56.6776 9.4215 57.4826 8.2795 57.2756 7.0825C55.7626 -1.6685 48.1486 -5.7935 47.2856 -6.2355C44.9806 -7.5135 42.5176 -8.3445 39.9536 -8.7105C39.0946 -8.8335 38.2186 -8.8945 37.3476 -8.8945C30.2216 -8.8945 23.5966 -4.8555 20.4676 1.3925C15.7876 10.7365 19.0396 21.4165 28.3746 27.3645L36.6646 32.6315L41.3886 35.6645C48.7306 40.3445 51.3046 48.7145 47.6456 56.0215C45.2556 60.7915 40.1846 63.8745 34.7256 63.8745C34.0566 63.8745 33.3826 63.8285 32.7226 63.7335C30.6776 63.4405 28.7116 62.7755 26.8796 61.7525L26.7676 61.6925C26.7146 61.6675 20.3206 58.4975 19.1196 51.5515C18.9356 50.4925 18.0236 49.7215 16.9516 49.7215Z" fill="#09cca9"/>
</svg>
